Coordinates
version=1
nRows=29
nColumns=30
inDegrees=yes

Units are S.I. units (second, meters, Newtons, ...)
Angles are in degrees.

endheader
time	floatyaw	floatroll	floatpitch	floatx	floaty	floatz	pro_sup_l	deviation_l	flexion_l	cmc_flexion_l	cmc_abduction_l	mp_flexion_l	ip_flexion_l	2mcp_flexion_l	2mcp_abduction_l	2pm_flexion_l	2md_flexion_l	3mcp_flexion_l	3mcp_abduction_l	3pm_flexion_l	3md_flexion_l	4mcp_flexion_l	4mcp_abduction_l	4pm_flexion_l	4md_flexion_l	5mcp_flexion_l	5mcp_abduction_l	5pm_flexion_l	5md_flexion_l
0.005000	-160.147433	-5.066637	-73.570646	-0.066482	-0.129011	-0.115683	22.212134	-23.301651	-0.682818	23.627618	-19.939472	-21.457046	-46.657636	38.584049	14.133408	49.318816	37.520670	46.802797	5.973347	45.680406	29.734163	34.596704	-6.130886	54.072566	39.896299	-3.481158	-13.441410	76.381463	56.131814
0.015000	-160.147433	-5.066637	-73.570646	-0.066019	-0.125155	-0.116032	21.078055	-23.107359	-1.285318	21.741321	-20.531467	-21.610172	-46.179765	39.621386	14.235608	48.795077	38.296712	48.057753	6.099348	45.913540	30.113826	35.592600	-6.131172	54.496908	40.477114	-3.530223	-13.552415	76.285173	56.759877
0.025000	-160.147433	-5.066637	-73.570646	-0.065268	-0.121580	-0.116174	20.109476	-22.619601	-1.657179	19.747766	-21.268150	-21.641140	-45.593384	39.893998	14.026705	47.848949	38.875653	48.503309	6.150434	45.700016	30.384657	36.054477	-6.076087	54.382209	40.784555	-3.546081	-13.475194	75.629690	56.980688
0.035000	-160.147433	-5.066637	-73.570646	-0.064540	-0.118562	-0.116263	19.359974	-22.069763	-1.813209	17.907472	-22.197014	-21.526508	-45.083233	39.758236	13.756141	46.762663	39.342625	48.579773	6.157968	45.157833	30.534492	36.170648	-6.024076	54.021298	40.929646	-3.612326	-13.319004	74.924034	57.003646
0.045000	-160.147433	-5.066637	-73.570646	-0.064008	-0.116312	-0.116360	18.849635	-21.612281	-1.815744	16.426974	-23.207591	-21.285461	-44.755449	39.531481	13.621818	45.796164	39.775189	48.639587	6.145933	44.459465	30.573251	36.127001	-6.017862	53.673877	41.009630	-3.738032	-13.160846	74.544614	56.972232
0.055000	-160.147433	-5.066637	-73.570646	-0.063703	-0.114931	-0.116463	18.549174	-21.293931	-1.741300	15.407637	-24.126877	-20.950650	-44.589585	39.393160	13.706900	45.096831	40.202471	48.843685	6.126943	43.769829	30.526879	36.050982	-6.071382	53.481972	41.074023	-3.883857	-13.028017	74.640852	56.937689
0.065000	-160.147433	-5.066637	-73.570646	-0.063557	-0.114365	-0.116545	18.395920	-21.073655	-1.655979	14.830697	-24.824556	-20.556275	-44.475004	39.380838	13.977468	44.674346	40.599291	49.173340	6.104589	43.202478	30.430004	36.001363	-6.170898	53.457694	41.125494	-3.996538	-12.909676	75.141168	56.881560
0.075000	-160.147433	-5.066637	-73.570646	-0.063468	-0.114422	-0.116588	18.324299	-20.876674	-1.600718	14.588411	-25.266253	-20.138147	-44.294466	39.444709	14.328429	44.442977	40.912996	49.516755	6.078964	42.803027	30.316477	35.987922	-6.287181	53.528264	41.143009	-4.037454	-12.783596	75.838746	56.762339
0.085000	-160.147433	-5.066637	-73.570646	-0.063359	-0.114830	-0.116594	18.289989	-20.648695	-1.586469	14.540907	-25.501210	-19.736522	-43.996138	39.512517	14.645848	44.294980	41.101042	49.765394	6.051359	42.558133	30.210407	35.998502	-6.390999	53.601113	41.107782	-3.996792	-12.638898	76.506673	56.556623
0.095000	-160.147433	-5.066637	-73.570646	-0.063203	-0.115324	-0.116573	18.276308	-20.382162	-1.600113	14.567199	-25.613146	-19.394470	-43.615183	39.533417	14.854538	44.158395	41.155202	49.870758	6.025524	42.420321	30.121971	36.018083	-6.464352	53.613763	41.018071	-3.892500	-12.483155	76.988257	56.276592
0.105000	-160.147433	-5.066637	-73.570646	-0.063015	-0.115713	-0.116539	18.284710	-20.108334	-1.617873	14.590979	-25.674316	-19.147622	-43.241995	39.491621	14.935049	44.013834	41.101405	49.848252	6.005621	42.335264	30.049351	36.035379	-6.503828	53.551125	40.889030	-3.759441	-12.334824	77.231114	55.962606
0.115000	-160.147433	-5.066637	-73.570646	-0.062825	-0.115920	-0.116501	18.319902	-19.869082	-1.618879	14.580987	-25.725661	-19.009167	-42.964236	39.397107	14.912611	43.876305	40.981026	49.746190	5.993269	42.260916	29.984358	36.041132	-6.517029	53.433742	40.742603	-3.635568	-12.210263	77.267629	55.662074
0.125000	-160.147433	-5.066637	-73.570646	-0.062650	-0.115967	-0.116461	18.380088	-19.689465	-1.592930	14.537203	-25.781730	-18.961391	-42.820238	39.268007	14.832191	43.765965	40.829071	49.609805	5.986196	42.174746	29.918181	36.025675	-6.515772	53.293277	40.596402	-3.550008	-12.114945	77.168855	55.408810
0.135000	-160.147433	-5.066637	-73.570646	-0.062490	-0.115932	-0.116417	18.456255	-19.566160	-1.541332	14.474723	-25.845932	-18.961890	-42.787536	39.117557	14.735110	43.689075	40.663029	49.462167	5.979506	42.071346	29.845155	35.980731	-6.510021	53.152132	40.458544	-3.515873	-12.043077	77.002616	55.212550
0.145000	-160.147433	-5.066637	-73.570646	-0.062330	-0.115900	-0.116370	18.537498	-19.474272	-1.473483	14.411906	-25.922303	-18.961600	-42.804825	38.951065	14.646407	43.636420	40.486035	49.306661	5.968553	41.955311	29.764238	35.904588	-6.504947	53.016230	40.329881	-3.529092	-11.983629	76.813183	55.060965
0.155000	-160.147433	-5.066637	-73.570646	-0.062157	-0.115925	-0.116323	18.616624	-19.384303	-1.402463	14.363854	-26.017954	-18.923915	-42.807823	38.770697	14.574125	43.593421	40.297906	49.141616	5.951523	41.834085	29.678833	35.805945	-6.501361	52.880259	40.210020	-3.572721	-11.927542	76.622145	54.930667
0.165000	-160.147433	-5.066637	-73.570646	-0.061970	-0.116016	-0.116284	18.692174	-19.277621	-1.341279	14.339369	-26.138250	-18.835325	-42.758171	38.581998	14.516073	43.551136	40.104418	48.973494	5.930204	41.713543	29.595522	35.702499	-6.498042	52.738253	40.102079	-3.624445	-11.871891	76.439424	54.800607
0.175000	-160.147433	-5.066637	-73.570646	-0.061783	-0.116148	-0.116261	18.766677	-19.152566	-1.299737	14.339607	-26.280864	-18.704726	-42.654107	38.396709	14.467846	43.510547	39.919109	48.819768	5.908801	41.596789	29.522067	35.614181	-6.493977	52.591359	40.013014	-3.664252	-11.819775	76.272828	54.661294
0.185000	-160.147433	-5.066637	-73.570646	-0.061617	-0.116282	-0.116260	18.843492	-19.020330	-1.281723	14.358097	-26.434174	-18.554751	-42.522651	38.229982	14.427522	43.479336	39.757889	48.701087	5.891761	41.485128	29.464949	35.554579	-6.489266	52.448376	39.949647	-3.679671	-11.777283	76.130420	54.516269
0.195000	-160.147433	-5.066637	-73.570646	-0.061486	-0.116387	-0.116278	18.924665	-18.895359	-1.283592	14.382791	-26.581457	-18.410665	-42.400653	38.094146	14.395787	43.465253	39.630848	48.629038	5.881845	41.379808	29.426983	35.525388	-6.484697	52.320150	39.913180	-3.667168	-11.749661	76.016808	54.376887
0.205000	-160.147433	-5.066637	-73.570646	-0.061394	-0.116453	-0.116303	19.010593	-18.786626	-1.294906	14.400167	-26.707803	-18.291325	-42.315453	37.993110	14.373351	43.470715	39.536666	48.597751	5.879172	41.283371	29.405927	35.517136	-6.480864	52.212461	39.895951	-3.630246	-11.738409	75.928513	54.254850
0.215000	-160.147433	-5.066637	-73.570646	-0.061334	-0.116489	-0.116319	19.100706	-18.693989	-1.301753	14.399849	-26.805203	-18.204614	-42.274489	37.920454	14.358623	43.491027	39.463240	48.584579	5.881399	41.199693	29.394832	35.515849	-6.477735	52.122042	39.882937	-3.576429	-11.740272	75.853240	54.157103
0.225000	-160.147433	-5.066637	-73.570646	-0.061288	-0.116515	-0.116311	19.194044	-18.610005	-1.291132	14.377552	-26.873542	-18.147794	-42.266965	37.861411	14.347447	43.516307	39.394342	48.559826	5.884840	41.132100	29.384130	35.511695	-6.474913	52.037871	39.857640	-3.515530	-11.748340	75.774463	54.084985
0.235000	-160.147433	-5.066637	-73.570646	-0.061240	-0.116549	-0.116271	19.289107	-18.524766	-1.254241	14.335385	-26.918516	-18.111210	-42.273170	37.796968	14.334665	43.536032	39.318392	48.501211	5.886122	41.079845	29.364379	35.504439	-6.472253	51.946812	39.809146	-3.459735	-11.754587	75.678935	54.036326
0.245000	-160.147433	-5.066637	-73.570646	-0.061177	-0.116605	-0.116200	19.383056	-18.430786	-1.187790	14.280286	-26.948679	-18.082604	-42.273809	37.708606	14.316137	43.544163	39.234201	48.407007	5.883724	41.034597	29.328171	35.502752	-6.470300	51.840454	39.736585	-3.423710	-11.752587	75.563055	54.007771
0.255000	-160.147433	-5.066637	-73.570646	-0.061097	-0.116684	-0.116109	19.471052	-18.325947	-1.094099	14.221976	-26.973009	-18.050120	-42.254924	37.583273	14.290029	43.542116	39.150649	48.301850	5.878717	40.979600	29.270600	35.518083	-6.470166	51.719454	39.649121	-3.422240	-11.739293	75.434740	53.995493
0.265000	-160.147433	-5.066637	-73.570646	-0.061001	-0.116783	-0.116010	19.547056	-18.213694	-0.980842	14.170908	-26.999363	-18.004245	-42.209134	37.418108	14.257035	43.537637	39.080881	48.230724	5.874238	40.893566	29.189199	35.556696	-6.472860	51.593072	39.562069	-3.464753	-11.715596	75.309818	53.994224
0.275000	-160.147433	-5.066637	-73.570646	-0.060899	-0.116892	-0.115920	19.606572	-18.100713	-0.860061	14.136013	-27.033440	-17.940025	-42.135739	37.223054	14.219778	43.540157	39.034404	48.240535	5.873825	40.759259	29.084735	35.614472	-6.478420	51.474238	39.490961	-3.549203	-11.685883	75.204798	53.995961
0.285000	-160.147433	-5.066637	-73.570646	-0.060801	-0.117002	-0.115847	19.649852	-17.993349	-0.745666	14.122362	-27.077589	-17.859425	-42.040694	37.019002	14.181849	43.555591	39.011291	48.355739	5.879381	40.573557	28.963007	35.677987	-6.485439	51.372896	39.445640	-3.659607	-11.656696	75.129738	53.990111
